<svg height="100%" stroke-miterlimit="10"
     style="fill-rule:nonzero;clip-rule:evenodd;stroke-linecap:round;stroke-linejoin:round;" version="1.1"
     viewBox="0 0 485 485" width="100%" xml:space="preserve" xmlns="http://www.w3.org/2000/svg">
<defs/>
  <g opacity="1">
<path
  d="M230.962 1.65627C228.462 2.45627 224.862 3.95627 222.962 4.75627C218.962 6.55627 207.962 17.5563 207.962 19.6563C207.962 20.4563 207.562 21.0563 206.962 21.0563C206.462 21.0563 205.962 22.0563 205.962 23.3563C205.962 24.6563 205.362 26.2563 204.762 26.8563C202.962 28.6563 203.062 47.8563 204.862 51.6563C205.662 53.2563 206.962 56.0563 207.862 57.9563C211.662 65.8563 226.562 77.0563 233.262 77.0563C237.462 77.0563 237.962 78.6563 237.962 91.6563C237.962 98.4563 237.662 104.156 237.262 104.356C236.762 104.656 233.962 105.156 230.962 105.456C210.762 107.756 200.262 110.756 180.962 119.356C179.562 119.956 176.062 121.956 173.162 123.756C170.262 125.556 167.462 127.056 166.962 127.056C166.362 127.056 165.962 127.456 165.962 128.056C165.962 128.556 165.462 129.056 164.862 129.056C164.262 129.056 163.162 129.656 162.462 130.256C157.262 134.956 148.862 141.056 147.662 141.056C147.062 141.056 142.662 137.156 137.962 132.356L129.262 123.656L132.562 116.956C140.262 101.656 137.462 83.3563 125.462 71.5563C119.462 65.5563 114.262 62.7563 105.362 60.4563C99.6621 59.0563 97.8621 59.0563 92.5621 60.0563C75.9621 63.4563 65.3621 73.0563 60.4621 89.5563C58.5621 95.8563 58.5621 100.256 60.4621 106.556C65.6621 123.656 75.6621 133.056 93.0621 137.056C99.7621 138.556 105.962 137.456 115.662 132.956C119.162 131.356 122.262 130.056 122.762 130.056C124.162 130.056 140.962 146.956 140.962 148.356C140.962 149.056 139.962 150.656 138.662 152.056C137.462 153.456 135.062 156.356 133.462 158.556C131.762 160.756 130.262 162.756 129.862 163.056C128.962 163.956 120.462 178.356 118.762 182.056C113.662 193.156 111.962 197.756 109.962 205.056C107.362 214.956 106.962 216.956 105.862 226.056C105.162 231.256 104.262 236.156 103.662 236.756C102.462 238.356 81.7621 238.556 78.8621 237.056C77.7621 236.356 76.9621 234.956 76.9621 233.256C76.9621 226.456 65.8621 211.656 57.8621 207.956C56.0621 207.056 53.1621 205.756 51.5621 204.956C47.7621 203.156 30.0621 203.156 26.2621 205.056C24.7621 205.756 21.9621 207.056 20.0621 207.956C14.4621 210.556 6.76205 218.756 3.76205 225.056C-1.53795 236.456-1.23795 248.356 4.66205 261.056C7.16205 266.356 15.9621 274.556 22.5621 277.656C27.7621 280.156 29.6621 280.456 38.9621 280.456C48.4621 280.556 50.0621 280.256 55.2621 277.756C65.4621 272.956 76.9621 258.656 76.9621 250.956C76.9621 246.556 78.4621 246.056 91.5621 246.056C98.3621 246.056 104.062 246.456 104.362 246.856C104.662 247.356 105.362 251.756 105.962 256.656C107.562 270.856 111.262 284.756 116.662 297.056C119.962 304.556 120.462 305.756 123.662 310.856C125.462 313.756 126.962 316.456 126.962 316.956C126.962 317.456 127.262 318.056 127.762 318.256C128.162 318.356 130.362 321.056 132.662 324.156C134.962 327.256 137.362 330.356 138.162 331.156C142.662 335.956 142.862 335.456 133.362 345.056C128.562 350.056 123.862 354.056 122.962 354.056C122.162 354.056 120.462 353.356 119.262 352.556C116.462 350.556 102.362 346.056 98.8621 346.056C94.8621 346.056 86.2621 348.456 80.5621 351.156C68.7621 356.656 58.9621 372.256 58.9621 385.556C58.9621 401.856 70.8621 417.856 87.3621 423.556C91.9621 425.156 103.662 425.556 107.162 424.156C116.262 420.656 118.962 419.156 123.162 415.856C128.962 411.056 133.562 403.956 136.062 395.856C139.262 385.356 138.362 378.656 132.362 366.756C131.062 364.056 129.962 361.556 129.962 361.056C129.962 359.756 146.962 343.056 148.362 343.056C149.062 343.056 150.962 344.256 152.562 345.656C164.462 356.056 185.562 368.056 198.962 371.956C201.462 372.656 204.362 373.656 205.462 374.056C207.862 375.056 217.362 376.856 228.962 378.356L237.462 379.556L237.762 391.956C238.062 404.856 237.462 407.056 233.762 407.056C230.262 407.056 219.462 412.656 215.462 416.656C211.062 420.956 205.962 428.256 205.962 430.356C205.962 431.056 205.462 432.156 204.762 432.856C203.162 434.456 203.062 453.856 204.562 457.156C205.262 458.456 206.462 461.256 207.362 463.356C209.362 467.856 218.862 477.456 223.262 479.456C235.562 485.156 247.862 485.456 258.362 480.556C265.862 477.156 273.862 469.156 277.562 461.356C280.062 456.156 280.362 454.556 280.362 445.056C280.362 435.456 280.162 434.056 277.462 428.556C274.162 422.056 266.162 413.356 261.462 411.156C259.862 410.456 257.262 409.156 255.762 408.456C254.362 407.656 252.062 407.056 250.662 407.056C246.462 407.056 245.862 405.256 246.162 391.956L246.462 379.556L255.962 378.356C269.362 376.556 279.862 374.256 286.462 371.556C288.162 370.856 292.162 369.256 295.462 368.056C298.762 366.756 303.062 364.856 304.962 363.756C312.762 359.456 317.562 356.556 318.762 355.356C319.562 354.656 321.062 353.556 322.162 352.956C324.162 351.856 325.662 350.756 331.262 345.856C333.062 344.356 335.062 343.056 335.762 343.056C336.462 343.056 340.962 346.956 345.862 351.756L354.762 360.556L351.362 367.656C342.562 385.756 347.662 405.456 364.462 418.056C368.862 421.356 375.862 423.656 384.662 424.756C389.462 425.356 403.262 421.356 407.062 418.356C412.662 413.956 417.862 408.256 419.662 404.556C422.562 398.956 424.962 389.956 424.962 385.256C424.962 381.056 420.362 366.856 418.862 366.256C418.362 366.056 417.962 365.356 417.962 364.656C417.962 362.656 408.562 354.056 403.462 351.556C400.862 350.156 395.762 348.356 392.162 347.456C386.162 345.956 385.162 345.956 378.262 347.556C374.262 348.556 370.662 349.656 370.362 350.156C370.062 350.656 368.962 351.056 367.962 351.056C366.962 351.056 365.962 351.456 365.762 351.956C365.662 352.456 364.362 353.156 362.962 353.556C360.862 354.056 359.162 352.856 351.762 345.556C346.862 340.856 342.962 336.456 342.962 335.756C342.962 335.156 344.262 333.156 345.762 331.456C347.262 329.756 349.362 327.156 350.462 325.656C351.562 324.156 353.462 321.656 354.662 320.256C355.962 318.756 356.962 316.956 356.962 316.256C356.962 315.656 357.262 315.056 357.762 315.056C358.162 315.056 358.962 314.056 359.562 312.756C360.162 311.556 362.262 307.356 364.162 303.556C368.462 295.256 370.262 290.956 371.962 285.556C372.662 283.356 373.562 280.656 373.962 279.556C375.362 275.856 376.962 267.556 378.062 258.056C378.762 252.856 379.662 247.956 380.262 247.256C381.262 245.956 402.262 245.456 405.362 246.656C406.262 246.956 406.962 248.456 406.962 249.956C406.962 253.856 412.862 264.756 417.762 269.656C420.162 271.956 425.062 275.356 428.562 277.156C434.462 280.156 435.962 280.456 444.262 280.556C454.962 280.556 460.562 279.056 467.162 274.356C473.462 269.856 477.362 265.156 480.662 258.256C483.162 253.156 483.462 251.556 483.362 242.056C483.362 232.656 483.062 230.956 480.562 225.556C476.962 218.056 468.962 210.056 461.362 206.456C456.162 204.056 454.262 203.656 445.362 203.656C439.662 203.556 434.262 204.056 432.862 204.656C431.562 205.356 428.662 206.656 426.462 207.556C418.362 211.156 406.962 226.156 406.962 233.256C406.962 234.956 406.162 236.356 405.062 237.056C402.862 238.156 382.062 238.456 380.262 237.256C379.662 236.856 378.362 231.356 377.562 225.056C376.662 218.756 375.462 211.756 374.862 209.556C374.262 207.356 373.562 204.456 373.362 203.056C373.062 201.656 372.462 199.656 371.962 198.556C371.562 197.456 370.162 194.056 368.962 191.056C367.762 188.056 366.062 183.956 365.162 182.056C363.062 177.356 349.862 157.456 346.062 153.156C344.362 151.356 342.962 149.056 342.962 148.156C342.962 147.256 346.962 142.656 351.762 137.856L360.562 129.156L363.662 130.956C368.762 134.156 380.862 138.056 385.262 138.056C391.262 138.056 404.962 133.656 404.962 131.856C404.962 131.356 405.662 131.056 406.462 131.056C408.662 131.056 417.262 122.056 419.662 117.056C426.562 103.056 426.562 92.4563 419.762 79.7563C417.062 74.6563 407.962 65.3563 404.162 63.8563C390.062 58.2563 383.162 57.6563 373.962 61.1563C370.962 62.2563 367.662 63.4563 366.762 63.7563C365.762 64.0563 364.962 64.6563 364.962 65.1563C364.962 65.6563 364.462 66.0563 363.962 66.0563C362.162 66.0563 356.162 72.1563 352.962 77.0563C349.062 83.0563 346.062 92.3563 345.962 98.0563C345.962 103.456 348.962 113.656 351.962 118.556C353.162 120.456 353.862 122.856 353.562 123.756C352.862 125.856 337.562 141.056 336.162 141.056C335.062 141.056 318.662 128.956 318.162 127.756C317.962 127.356 317.362 127.056 316.762 127.056C316.262 127.056 314.562 126.256 313.162 125.156C308.562 122.056 300.962 118.056 299.462 118.056C298.662 118.056 297.962 117.656 297.962 117.156C297.962 116.656 296.962 116.056 295.762 115.756C294.462 115.456 290.062 113.956 285.962 112.456C276.862 109.156 273.862 108.456 258.462 106.256L246.462 104.456L246.162 92.1563C245.862 78.9563 246.462 77.0563 250.662 77.0563C257.262 77.0563 272.462 65.6563 276.062 57.9563C276.962 56.0563 278.262 53.2563 279.062 51.6563C280.862 47.9563 280.862 28.5563 279.162 26.8563C278.462 26.1563 277.962 24.6563 277.962 23.3563C277.962 22.0563 277.562 21.0563 276.962 21.0563C276.462 21.0563 275.962 20.4563 275.962 19.6563C275.962 17.5563 264.962 6.65627 260.962 4.75627C250.362-0.243731 239.762-1.34373 230.962 1.65627ZM256.662 12.2563C267.562 18.3563 272.362 26.9563 272.362 40.1563C272.262 48.5563 272.162 48.9563 268.362 54.6563C264.062 61.1563 256.362 67.5563 251.562 68.5563C241.762 70.6563 235.362 70.1563 228.062 66.6563C223.662 64.5563 217.362 58.2563 214.462 52.9563C211.962 48.2563 211.562 46.4563 211.562 39.5563C211.562 30.4563 213.462 24.9563 218.862 18.8563C228.162 8.25627 244.462 5.35627 256.662 12.2563ZM107.862 69.2563C116.662 72.2563 125.162 80.6563 127.762 88.9563C129.262 94.1563 129.362 103.356 127.762 107.956C124.862 116.256 117.462 124.156 109.062 127.656C104.962 129.356 93.8621 129.456 89.0621 127.856C80.3621 124.856 71.4621 116.156 69.0621 108.056C67.5621 103.156 67.6621 93.6563 69.1621 89.1563C72.0621 80.6563 80.0621 72.4563 88.2621 69.4563C92.5621 67.8563 103.462 67.7563 107.862 69.2563ZM398.262 70.5563C404.962 73.5563 410.362 78.8563 413.562 85.4563C417.062 92.7563 416.962 104.556 413.362 111.856C407.662 123.256 398.162 129.056 384.962 129.056C380.662 129.056 376.762 128.556 376.462 128.056C376.162 127.456 375.162 127.056 374.362 127.056C369.462 127.056 359.062 116.256 356.262 108.356C354.762 103.856 354.562 91.4563 355.962 90.5563C356.562 90.2563 356.962 89.0563 356.962 87.9563C356.962 83.6563 365.362 73.9563 371.462 71.1563C373.162 70.4563 375.162 69.4563 375.962 68.9563C376.762 68.5563 380.962 68.1563 385.162 68.1563C391.362 68.0563 393.962 68.5563 398.262 70.5563ZM255.862 114.156C265.162 115.356 283.862 119.756 285.362 121.156C285.962 121.656 286.962 122.056 287.662 122.056C290.862 122.056 316.462 135.956 318.962 138.956C319.262 139.256 321.162 140.856 323.262 142.356C328.162 146.056 340.662 158.756 342.762 162.256C343.662 163.856 344.762 165.056 345.162 165.056C345.562 165.056 345.962 165.656 345.962 166.456C345.962 167.256 346.262 168.056 346.762 168.256C348.062 168.856 354.562 179.356 357.762 186.256C361.362 193.956 365.562 205.556 367.062 212.056C368.662 219.056 370.962 236.956 370.962 242.956C370.962 249.456 369.262 263.856 367.762 269.556C365.662 277.756 363.862 283.656 362.862 285.256C362.362 286.256 361.962 287.556 361.962 288.156C361.962 291.156 348.562 315.356 344.562 319.656C343.962 320.256 342.262 322.256 340.762 324.156C336.362 329.756 328.962 336.956 320.962 343.556C314.462 348.756 301.462 356.356 290.462 361.056C277.162 366.956 254.862 371.056 239.962 370.556C219.162 369.856 203.562 366.056 185.462 357.456C179.762 354.756 163.062 343.856 158.062 339.556C154.562 336.556 144.462 325.956 141.762 322.556C140.562 320.856 139.162 319.356 138.762 319.256C138.262 319.056 137.962 318.256 137.962 317.556C137.962 316.856 137.562 316.056 137.162 315.856C134.762 314.956 121.962 291.256 121.962 287.756C121.962 286.856 121.562 285.956 121.062 285.656C120.562 285.356 119.962 284.056 119.662 282.856C119.462 281.556 118.462 277.856 117.562 274.556C113.562 260.456 112.062 239.556 114.062 227.156C117.662 204.456 123.162 189.256 133.462 173.056C140.662 161.656 152.162 148.656 160.662 142.356C162.762 140.856 164.662 139.256 164.962 138.956C165.262 138.656 168.762 136.256 172.762 133.656C197.562 117.856 228.262 110.656 255.862 114.156ZM51.9621 214.056C75.9621 226.256 75.7621 257.756 51.5621 270.256C48.4621 271.856 45.5621 272.456 39.4621 272.456C32.6621 272.556 30.6621 272.156 25.7621 269.756C19.7621 266.856 10.9621 258.156 10.9621 255.156C10.9621 254.256 10.4621 252.956 9.86205 252.356C8.36205 250.856 8.56205 235.956 10.0621 231.456C12.9621 222.956 21.6621 214.956 30.7621 212.356C36.7621 210.756 46.9621 211.556 51.9621 214.056ZM459.062 214.856C464.662 217.856 472.962 226.256 472.962 228.956C472.962 229.856 473.462 231.156 474.062 231.756C474.662 232.356 475.062 236.856 475.062 242.056C475.062 247.256 474.662 251.756 474.062 252.356C473.462 252.956 472.962 254.256 472.962 255.256C472.962 256.256 472.562 257.056 471.962 257.056C471.462 257.056 470.962 257.656 470.962 258.456C470.962 260.256 463.062 267.456 458.262 269.856C449.662 274.256 437.762 273.556 428.762 268.156C412.062 258.056 409.262 234.656 422.862 220.356C425.662 217.456 433.262 212.956 437.262 211.956C443.062 210.456 453.562 211.856 459.062 214.856ZM107.762 355.956C114.562 359.256 116.762 360.656 119.262 362.956C132.062 374.756 132.262 396.056 119.762 407.656C116.862 410.456 114.662 411.756 107.762 415.156C106.762 415.656 102.562 416.056 98.4621 416.056C89.3621 416.056 82.1621 413.056 75.8621 406.556C65.5621 395.956 65.1621 376.256 75.1621 364.956C77.8621 361.956 84.1621 357.856 88.4621 356.256C92.0621 354.956 105.362 354.756 107.762 355.956ZM394.762 355.956C401.762 359.356 403.862 360.756 406.962 363.656C408.862 365.456 411.262 368.656 412.362 370.756C413.362 372.856 414.562 375.356 415.062 376.256C416.362 378.856 416.162 391.056 414.662 395.356C411.662 403.956 403.662 411.856 394.862 414.856C392.962 415.556 388.662 416.056 385.462 416.056C382.262 416.056 377.962 415.556 376.062 414.856C367.262 411.856 359.262 403.956 356.262 395.356C354.762 390.856 354.562 377.456 355.962 376.556C356.562 376.256 356.962 375.156 356.962 374.256C357.062 369.556 367.962 358.956 375.462 356.256C379.162 354.956 392.362 354.756 394.762 355.956ZM249.862 415.156C258.762 418.056 265.062 423.256 269.462 431.156C271.962 435.856 272.262 437.456 272.262 444.956C272.262 451.856 271.862 454.456 270.062 457.856C267.362 463.056 260.262 471.056 258.362 471.056C257.562 471.056 256.962 471.456 256.962 472.056C256.962 472.556 256.162 473.056 255.162 473.056C254.162 473.056 252.862 473.556 252.262 474.156C251.662 474.756 247.162 475.156 241.962 475.156C236.762 475.156 232.262 474.756 231.662 474.156C231.062 473.556 229.762 473.056 228.762 473.056C227.762 473.056 226.962 472.556 226.962 472.056C226.962 471.456 226.362 471.056 225.562 471.056C223.662 471.056 216.562 463.056 213.862 457.856C212.062 454.456 211.662 451.856 211.662 445.056C211.662 435.956 213.162 431.556 218.462 425.156C226.062 416.256 239.562 411.956 249.862 415.156Z"
  fill="#e2c54b" fill-rule="nonzero" opacity="1" stroke="none"/>
    <path
      d="M328.562 240.256C328.262 241.556 327.762 244.756 327.462 247.556C326.362 256.056 325.262 262.356 323.962 266.556C322.562 271.156 315.162 286.956 313.562 288.656C312.962 289.356 311.362 291.356 310.062 293.256C296.562 311.656 269.462 326.056 248.462 326.056C242.762 326.056 241.862 326.356 240.462 328.456C238.462 331.456 239.462 334.056 242.862 334.156C244.262 334.256 246.862 334.356 248.462 334.456C251.462 334.656 265.862 332.056 271.462 330.256C280.262 327.456 294.062 320.056 301.062 314.356C306.562 309.856 314.662 301.056 319.062 294.656C324.062 287.556 329.962 276.156 329.962 273.656C329.962 272.856 330.362 271.956 330.862 271.656C331.862 271.056 332.162 269.556 334.662 253.256C336.562 240.756 336.162 238.756 331.662 238.256C329.562 237.956 328.962 238.456 328.562 240.256Z"
      fill="#e2c54b" fill-rule="nonzero" opacity="1" stroke="none"/>
</g>
</svg>
