<svg width="360" height="150" viewBox="0 0 360 151" fill="none" xmlns="http://www.w3.org/2000/svg">
<path fill-rule="evenodd" clip-rule="evenodd" d="M359 -153C242.183 -102.582 455.205 58.8654 378 160C326.753 227.13 132.205 108.608 132.205 108.608C132.205 108.608 32.9998 38.0908 -20.5 10.5C-100 -30.4998 -216.892 -66.3016 -248.043 -139.361C-288.401 -234.015 -164.575 -121.749 -121.446 -215.252C-104.082 -252.895 -92.7724 -293.098 -68.1182 -326.431C-49.1456 -352.082 19.4763 -358.048 5.28328 -386.592C-49.3611 -496.488 -208.993 -541.586 -234.776 -661.598C-247.728 -721.89 -132.972 -756.089 -72.0389 -746.512C6.45533 -734.175 45.1773 -574.281 118.004 -606.151C224.443 -652.73 194.159 -841.021 290.919 -905.347C358.415 -950.218 461.864 -923.267 530.591 -880.438C598.791 -837.937 687.208 -751.801 656.691 -677.405C599.289 -537.467 399.744 -505.691 323.322 -375.146C300.278 -335.783 398.502 -325.365 433.545 -296.228C565.162 -186.796 918.36 -102.61 818.702 36.7359C715.248 181.39 522.28 -223.472 359 -153Z" stroke="white"/>
<path fill-rule="evenodd" clip-rule="evenodd" d="M-548.009 -319.651C-437.405 -382.538 -681.058 -582.87 -615.372 -691.839C-571.772 -764.169 -466.546 -616.672 -388.921 -583.568C-339.184 -562.357 -291.172 -530.956 -237.084 -530.514C-157.633 -529.865 -44.9861 -649.656 -6.03467 -580.439C44.4294 -490.765 -68.7363 -387.036 -101.385 -289.379C-114.53 -250.063 -121.376 -208.865 -142.239 -173.037C-158.293 -145.465 -224.852 -110.033 -207.623 -83.2115C-179.5 66.9995 22.2517 3.52482 61 120C80.4662 178.514 -28.5 232.5 -147.5 125.354C-226.872 121.673 -227.759 85.7136 -296.665 125.354C-397.373 183.291 -346.686 367.142 -435.834 441.661C-498.019 493.642 -603.795 478.162 -676.793 443.103C-749.23 408.313 -846.534 332.359 -824.333 255.073C-782.573 109.698 -587.699 56.2977 -526.006 -81.8198C-507.404 -123.466 -606.178 -123.083 -644.197 -148.214C-786.988 -242.601 -1147.27 -287.669 -1063.45 -437.075C-976.427 -592.172 -702.607 -231.751 -548.009 -319.651Z" stroke="white"/>
<path fill-rule="evenodd" clip-rule="evenodd" d="M353 -213.5C236.183 -163.082 406.205 28.8651 329 130C277.753 197.13 131.04 53.3913 57.5002 11.9998C10.3803 -14.5214 -31.7853 -3.64796 -85.4999 -10.0003C-164.404 -19.3316 -275.246 59.7289 -306.397 -13.3309C-346.755 -107.984 -222.927 -198.72 -179.797 -292.223C-162.434 -329.866 -151.124 -370.068 -126.47 -403.401C-107.497 -429.052 -38.8755 -435.019 -53.0686 -463.562C-107.713 -573.458 -267.345 -618.556 -293.128 -738.569C-306.08 -798.861 -191.324 -833.059 -130.391 -823.482C-51.8967 -811.145 -13.1745 -651.251 59.6523 -683.121C166.091 -729.7 135.807 -917.992 232.567 -982.318C300.063 -1027.19 403.512 -1000.24 472.239 -957.408C540.439 -914.907 628.856 -828.771 598.339 -754.376C540.937 -614.437 341.392 -582.661 264.97 -452.116C241.926 -412.754 340.15 -402.335 375.193 -373.199C506.81 -263.766 860.008 -179.581 760.35 -40.2344C656.896 104.419 516.28 -283.972 353 -213.5Z" stroke="white"/>
<path fill-rule="evenodd" clip-rule="evenodd" d="M279.737 -294.775C162.92 -244.357 372.954 -16.6349 295.749 84.4998C244.502 151.63 105.249 -6.50023 20.7487 -46.5002C-26.3712 -73.0214 -63.6622 -112.815 -117.377 -119.168C-196.281 -128.499 -321.349 -21.7412 -352.5 -94.801C-392.858 -189.454 -269.03 -280.19 -225.9 -373.693C-208.537 -411.336 -197.227 -451.539 -172.573 -484.871C-153.601 -510.523 -84.9786 -516.489 -99.1716 -545.033C-153.816 -654.929 -313.448 -700.026 -339.231 -820.039C-352.183 -880.33 -237.426 -914.529 -176.494 -904.952C-97.9996 -892.615 -59.2776 -732.721 13.5493 -764.591C119.988 -811.17 89.7037 -999.462 186.464 -1063.79C253.96 -1108.66 357.409 -1081.71 426.136 -1038.88C494.336 -996.377 582.753 -910.241 552.236 -835.846C494.834 -695.907 295.289 -664.131 218.867 -533.586C195.823 -494.224 294.047 -483.806 329.09 -454.669C460.707 -345.237 813.905 -261.051 714.247 -121.705C610.793 22.9492 443.017 -365.247 279.737 -294.775Z" stroke="white"/>
<path fill-rule="evenodd" clip-rule="evenodd" d="M144.137 -397.245C27.32 -346.827 346.206 -62.135 269 38.9997C217.754 106.13 104.04 -146.609 30.5 -188C-16.6199 -214.521 -134.263 -215.286 -187.977 -221.638C-266.882 -230.969 -391.949 -124.211 -423.1 -197.271C-463.458 -291.925 -339.631 -382.66 -296.501 -476.163C-279.137 -513.806 -267.828 -554.009 -243.174 -587.342C-224.201 -612.993 -155.579 -618.959 -169.772 -647.503C-224.416 -757.399 -384.049 -802.496 -409.831 -922.509C-422.784 -982.801 -308.027 -1017 -247.094 -1007.42C-168.6 -995.085 -129.878 -835.192 -57.0512 -867.062C49.3873 -913.641 19.1034 -1101.93 115.864 -1166.26C183.359 -1211.13 286.809 -1184.18 355.536 -1141.35C423.736 -1098.85 512.153 -1012.71 481.636 -938.316C424.233 -798.377 224.689 -766.602 148.266 -636.057C125.223 -596.694 223.446 -586.276 258.49 -557.139C390.106 -447.707 743.304 -363.521 643.646 -224.175C540.192 -79.521 307.417 -467.717 144.137 -397.245Z" stroke="white"/>
</svg>
