<svg width="92" height="102" viewBox="0 0 92 102" fill="none" xmlns="http://www.w3.org/2000/svg">
<path d="M25.4916 34.0729C27.4152 28.5768 34.3457 9.33335 54.3978 9.07293C69.7624 9.07293 88.5124 17.9271 82.7832 43.9688C76.5684 72.2182 45.8041 101 30.4395 83.5521C15.0749 66.1042 21.8457 44.4896 25.4916 34.0729Z" fill="#EFE2CD"/>
<path d="M40.5956 53.6042C36.429 36.1563 49.9706 15.8438 61.6894 15.8438C85.6477 15.8438 92.3113 45.0104 91.6373 56.4688C91.3769 60.8958 86.9498 85.375 68.9811 84.8542C51.0123 84.3334 44.7623 71.0521 40.5956 53.6042Z" fill="#ECC4B0"/>
<path d="M48.1478 75.2188C44.7624 74.4375 43.4603 71.5729 44.502 68.9688C45.3508 66.8468 46.0645 65.5833 49.4499 65.8438C52.8353 66.1042 53.877 69.2292 53.877 71.0521C53.877 72.875 51.5332 76 48.1478 75.2188Z" fill="#EAAC9A"/>
<path d="M81.7415 90.8438C81.7415 89.2813 82.2623 87.1979 85.6477 86.9375C89.0331 86.9375 89.8144 89.2813 89.2935 90.8438C88.7727 92.4063 87.4706 94.2292 84.8665 94.2292C82.2623 94.2292 81.7415 92.4063 81.7415 90.8438Z" fill="#EEC8B2"/>
<path d="M18.9812 54.125C18.1999 50.7396 17.4187 45.0104 24.7104 41.8854C33.3041 38.2396 36.1687 45.2708 37.9916 48.6563C39.8145 52.0417 38.7728 61.1563 30.6999 61.6771C22.627 62.1979 19.7624 57.5104 18.9812 54.125Z" fill="#DAAEA2"/>
<path d="M7.52271 10.8959C7.26229 7.77086 8.82479 3.60419 14.554 3.34377C21.5852 3.34377 22.6269 8.55211 22.106 10.8959C21.5852 13.2396 18.4602 17.6667 13.5123 17.1459C8.56436 16.625 7.78312 14.0209 7.52271 10.8959Z" fill="#EDA288"/>
<path d="M40.2558 84.0405C40.0941 83.9406 39.882 83.9907 39.7821 84.1524C39.6822 84.3142 39.7323 84.5263 39.894 84.6262L40.2558 84.0405ZM58.3041 83.5521L58.495 83.8385L58.3041 83.5521ZM80.2576 48.4559C80.2908 48.2687 80.1659 48.09 79.9787 48.0569C79.7915 48.0237 79.6129 48.1486 79.5797 48.3358L80.2576 48.4559ZM42.7936 59.79C42.6144 59.7267 42.4178 59.8207 42.3545 60C42.2912 60.1793 42.3853 60.3759 42.5645 60.4392L42.7936 59.79ZM48.9291 59.5937L49.1881 59.8204H49.1881L48.9291 59.5937ZM74.6015 24.5036C74.7818 24.5638 74.9768 24.4663 75.0369 24.2859C75.097 24.1056 74.9995 23.9107 74.8192 23.8505L74.6015 24.5036ZM58.1905 36.8866C58.0186 36.8055 57.8134 36.8791 57.7323 37.0511C57.6512 37.223 57.7249 37.4282 57.8968 37.5092L58.1905 36.8866ZM65.3353 38.7604L65.3974 39.099L65.3353 38.7604ZM72.144 34.5052C72.2389 34.3405 72.1823 34.13 72.0176 34.0351C71.8529 33.9402 71.6424 33.9967 71.5475 34.1615L72.144 34.5052ZM63.0754 41.1042C63.0754 40.9141 62.9213 40.7599 62.7312 40.7599C62.5411 40.7599 62.3869 40.9141 62.3869 41.1042H63.0754ZM62.3869 43.4479C62.3869 43.638 62.5411 43.7921 62.7312 43.7921C62.9213 43.7921 63.0754 43.638 63.0754 43.4479H62.3869ZM70.7314 37.9511C70.5721 37.8474 70.3589 37.8925 70.2552 38.0518C70.1515 38.2112 70.1966 38.4244 70.3559 38.5281L70.7314 37.9511ZM72.3666 39.2812L72.5096 38.9681L72.3666 39.2812ZM74.6239 40.3957C74.8079 40.4434 74.9958 40.333 75.0435 40.1489C75.0913 39.9649 74.9808 39.7771 74.7968 39.7293L74.6239 40.3957ZM67.48 39.9402C67.4124 39.7625 67.2136 39.6732 67.0359 39.7408C66.8582 39.8083 66.7689 40.0071 66.8365 40.1848L67.48 39.9402ZM67.6791 41.1042L67.3908 41.2922L67.6791 41.1042ZM68.4632 42.6346C68.5893 42.7769 68.8069 42.7899 68.9491 42.6638C69.0914 42.5376 69.1044 42.3201 68.9783 42.1779L68.4632 42.6346ZM16.377 31.9896L16.6348 32.2176L16.377 31.9896ZM14.2937 52.5625L14.5105 52.2952L14.2937 52.5625ZM33.5645 61.6771L33.8128 61.4387L33.5645 61.6771ZM23.4082 77.8229L23.308 77.4936L23.4082 77.8229ZM8.16721 101.316C8.34165 101.391 8.54433 101.311 8.61992 101.137C8.69551 100.962 8.61538 100.76 8.44094 100.684L8.16721 101.316ZM38.7728 68.7083L38.9615 68.4204L38.5663 68.9837L38.7728 68.7083ZM45.2832 74.1771L45.3097 73.8339L45.2832 74.1771ZM53.877 69.2292L54.0212 69.5417L53.877 68.8849V69.2292ZM45.8041 70.5312L45.8243 70.8749L45.8041 70.5312ZM43.7207 66.625V66.9692V66.625ZM46.3249 68.4479V68.7921V68.4479ZM48.6687 66.3646V66.7088V66.3646ZM65.6588 0.882365C65.5939 0.703703 65.3964 0.611535 65.2177 0.676503C65.039 0.741471 64.9469 0.938973 65.0118 1.11764L65.6588 0.882365ZM40.0749 84.3333C39.894 84.6262 39.8942 84.6263 39.8944 84.6264C39.8945 84.6265 39.8948 84.6266 39.895 84.6268C39.8955 84.6271 39.8961 84.6274 39.8968 84.6279C39.8982 84.6288 39.9002 84.63 39.9028 84.6315C39.9078 84.6346 39.915 84.639 39.9244 84.6445C39.943 84.6556 39.9701 84.6715 40.0053 84.6918C40.0758 84.7322 40.1791 84.7899 40.3131 84.8606C40.5811 85.0019 40.9722 85.1953 41.4702 85.407C42.4657 85.83 43.8911 86.3272 45.6152 86.6256C49.0673 87.2231 53.7187 87.0227 58.495 83.8385L58.1131 83.2657C53.5145 86.3315 49.0513 86.5217 45.7326 85.9473C44.0712 85.6597 42.6972 85.1804 41.7395 84.7734C41.2609 84.57 40.8871 84.385 40.6342 84.2516C40.5078 84.185 40.4117 84.1313 40.348 84.0947C40.3161 84.0764 40.2923 84.0624 40.2768 84.0532C40.2691 84.0485 40.2635 84.0451 40.26 84.043C40.2582 84.0419 40.257 84.0412 40.2563 84.0408C40.2559 84.0406 40.2557 84.0404 40.2556 84.0404C40.2556 84.0403 40.2556 84.0404 40.2556 84.0404C40.2557 84.0404 40.2558 84.0405 40.0749 84.3333ZM58.495 83.8385C67.2954 77.9716 72.7333 69.1162 75.9695 61.7504C77.5887 58.0648 78.66 54.7448 79.3267 52.3454C79.66 51.1455 79.8924 50.1753 80.0416 49.504C80.1162 49.1684 80.17 48.9075 80.2052 48.7299C80.2229 48.6411 80.2359 48.5732 80.2445 48.5271C80.2488 48.5041 80.252 48.4866 80.2542 48.4747C80.2553 48.4687 80.2561 48.4641 80.2567 48.461C80.257 48.4594 80.2572 48.4582 80.2573 48.4574C80.2574 48.4569 80.2575 48.4566 80.2575 48.4563C80.2576 48.4561 80.2576 48.4559 79.9187 48.3958C79.5797 48.3358 79.5797 48.3358 79.5797 48.3359C79.5797 48.336 79.5797 48.3362 79.5796 48.3365C79.5795 48.337 79.5793 48.338 79.5791 48.3392C79.5786 48.3418 79.5779 48.3458 79.5769 48.3512C79.575 48.362 79.572 48.3784 79.5679 48.4002C79.5597 48.4439 79.5471 48.5095 79.53 48.5958C79.4957 48.7685 79.4429 49.0244 79.3695 49.3547C79.2227 50.0154 78.9932 50.9739 78.6633 52.1611C78.0035 54.536 76.9426 57.824 75.3392 61.4735C72.13 68.7779 66.7607 77.5006 58.1131 83.2657L58.495 83.8385ZM42.5645 60.4392C43.3297 60.7092 44.5654 61.0051 45.8068 61.0187C47.0354 61.032 48.3584 60.7687 49.1881 59.8204L48.67 59.3671C48.0415 60.0854 46.9773 60.3429 45.8143 60.3303C44.6643 60.3177 43.5042 60.0408 42.7936 59.79L42.5645 60.4392ZM49.1881 59.8204C49.325 59.664 49.3641 59.4556 49.377 59.277C49.3907 59.0869 49.3784 58.8556 49.3526 58.5917C49.3012 58.0659 49.1862 57.3257 49.0601 56.3798C48.806 54.4733 48.4921 51.6317 48.4921 47.6146H47.8036C47.8036 51.6703 48.1209 54.5434 48.3777 56.4707C48.5071 57.4418 48.6175 58.1483 48.6674 58.6588C48.6923 58.913 48.6997 59.0973 48.6903 59.2275C48.6801 59.3692 48.6535 59.386 48.67 59.3671L49.1881 59.8204ZM48.4921 47.6146C48.4921 35.4461 52.3717 28.8126 57.5083 25.6419C62.6643 22.4592 69.1891 22.6995 74.6015 24.5036L74.8192 23.8505C69.2941 22.0088 62.5376 21.7283 57.1467 25.056C51.7365 28.3957 47.8036 35.3039 47.8036 47.6146H48.4921ZM58.0437 37.1979C57.8968 37.5092 57.8969 37.5093 57.897 37.5093C57.897 37.5093 57.8971 37.5094 57.8972 37.5094C57.8975 37.5095 57.8977 37.5097 57.8981 37.5098C57.8987 37.5101 57.8997 37.5106 57.9009 37.5112C57.9033 37.5123 57.9068 37.5139 57.9114 37.516C57.9204 37.5202 57.9336 37.5264 57.9508 37.5342C57.9852 37.55 58.0354 37.5727 58.1002 37.6014C58.2296 37.6586 58.4168 37.7395 58.6502 37.8347C59.1166 38.0249 59.7689 38.2731 60.513 38.5049C61.9845 38.9633 63.877 39.3779 65.3974 39.099L65.2732 38.4218C63.9293 38.6684 62.1759 38.3018 60.7177 37.8476C59.9969 37.623 59.3634 37.3821 58.9102 37.1972C58.6837 37.1049 58.5027 37.0267 58.3788 36.9719C58.3169 36.9444 58.2692 36.9228 58.2374 36.9083C58.2214 36.901 58.2094 36.8954 58.2016 36.8917C58.1976 36.8899 58.1947 36.8886 58.1929 36.8877C58.1919 36.8873 58.1913 36.8869 58.1909 36.8868C58.1907 36.8867 58.1906 36.8866 58.1905 36.8866C58.1905 36.8866 58.1905 36.8866 58.1904 36.8866C58.1905 36.8866 58.1905 36.8866 58.0437 37.1979ZM65.3974 39.099C67.693 38.6778 69.3781 37.5303 70.4859 36.4936C71.0401 35.9751 71.4519 35.4823 71.7261 35.1178C71.8633 34.9354 71.9664 34.7847 72.0358 34.6785C72.0705 34.6254 72.0968 34.5833 72.1148 34.5539C72.1238 34.5392 72.1307 34.5277 72.1356 34.5195C72.138 34.5154 72.1399 34.5122 72.1413 34.5098C72.142 34.5086 72.1426 34.5076 72.143 34.5068C72.1433 34.5065 72.1435 34.5061 72.1436 34.5059C72.1437 34.5057 72.1438 34.5056 72.1438 34.5055C72.1439 34.5053 72.144 34.5052 71.8457 34.3333C71.5475 34.1615 71.5476 34.1613 71.5476 34.1613C71.5476 34.1612 71.5477 34.1612 71.5477 34.1611C71.5477 34.1611 71.5477 34.1611 71.5477 34.1611C71.5476 34.1613 71.5474 34.1616 71.5471 34.1621C71.5465 34.1632 71.5453 34.1652 71.5437 34.1679C71.5404 34.1735 71.5351 34.1824 71.5277 34.1943C71.5131 34.2183 71.4903 34.2547 71.4594 34.302C71.3976 34.3966 71.3033 34.5347 71.176 34.7039C70.9212 35.0426 70.5356 35.5043 70.0155 35.991C68.9749 36.9648 67.4047 38.0308 65.2732 38.4218L65.3974 39.099ZM62.3869 41.1042V43.4479H63.0754V41.1042H62.3869ZM70.5437 38.2396C70.3559 38.5281 70.3559 38.5281 70.3559 38.5281C70.3559 38.5281 70.356 38.5281 70.356 38.5282C70.3561 38.5282 70.3561 38.5282 70.3562 38.5283C70.3564 38.5284 70.3566 38.5285 70.3569 38.5287C70.3575 38.5291 70.3583 38.5297 70.3595 38.5304C70.3617 38.5318 70.3649 38.5339 70.3691 38.5366C70.3774 38.542 70.3897 38.5499 70.4055 38.5601C70.4371 38.5803 70.4828 38.6095 70.54 38.6456C70.6542 38.7176 70.8143 38.8172 70.9981 38.9277C71.3627 39.1468 71.8321 39.4156 72.2236 39.5943L72.5096 38.9681C72.1552 38.8063 71.7132 38.5542 71.3527 38.3376C71.1741 38.2303 71.0183 38.1333 70.9072 38.0633C70.8518 38.0283 70.8075 38.0001 70.7773 37.9807C70.7622 37.971 70.7506 37.9635 70.7428 37.9585C70.7389 37.9559 70.736 37.9541 70.7341 37.9528C70.7331 37.9522 70.7324 37.9517 70.732 37.9514C70.7318 37.9513 70.7316 37.9512 70.7315 37.9511C70.7315 37.9511 70.7314 37.9511 70.7314 37.9511C70.7314 37.9511 70.7314 37.9511 70.7314 37.9511C70.7314 37.9511 70.7314 37.9511 70.5437 38.2396ZM72.2236 39.5943C72.6842 39.8047 73.2883 40.0054 73.7672 40.1515C74.0087 40.2251 74.2222 40.286 74.3755 40.3285C74.4522 40.3498 74.5139 40.3665 74.5567 40.3779C74.578 40.3836 74.5946 40.388 74.606 40.391C74.6117 40.3925 74.6161 40.3936 74.6191 40.3944C74.6206 40.3948 74.6217 40.3951 74.6225 40.3953C74.6229 40.3954 74.6232 40.3955 74.6235 40.3956C74.6236 40.3956 74.6237 40.3956 74.6237 40.3957C74.6238 40.3957 74.6238 40.3957 74.6238 40.3957C74.6239 40.3957 74.6239 40.3957 74.7103 40.0625C74.7968 39.7293 74.7968 39.7293 74.7968 39.7293C74.7968 39.7293 74.7968 39.7293 74.7968 39.7293C74.7968 39.7293 74.7967 39.7293 74.7966 39.7293C74.7965 39.7292 74.7963 39.7292 74.796 39.7291C74.7954 39.7289 74.7944 39.7287 74.7931 39.7284C74.7905 39.7277 74.7866 39.7266 74.7813 39.7253C74.7708 39.7225 74.755 39.7183 74.7346 39.7128C74.6937 39.7019 74.634 39.6858 74.5595 39.6651C74.4105 39.6238 74.2027 39.5645 73.9679 39.4929C73.4943 39.3485 72.9266 39.1586 72.5096 38.9681L72.2236 39.5943ZM67.1582 40.0625C66.8365 40.1848 66.8365 40.1849 66.8365 40.1849C66.8365 40.1849 66.8365 40.185 66.8366 40.185C66.8366 40.185 66.8366 40.1851 66.8366 40.1852C66.8367 40.1853 66.8368 40.1855 66.8368 40.1857C66.837 40.1862 66.8372 40.1868 66.8375 40.1875C66.8381 40.1889 66.8388 40.1909 66.8398 40.1934C66.8418 40.1985 66.8446 40.2057 66.8482 40.2148C66.8554 40.2331 66.8658 40.2592 66.8793 40.2918C66.9061 40.3569 66.9449 40.4482 66.9934 40.5544C67.0895 40.7646 67.2278 41.0424 67.3908 41.2922L67.9674 40.9161C67.8311 40.7072 67.7091 40.4641 67.6195 40.2682C67.5753 40.1713 67.54 40.0882 67.5158 40.0297C67.5038 40.0005 67.4946 39.9775 67.4885 39.9621C67.4855 39.9544 67.4832 39.9486 67.4818 39.9449C67.4811 39.943 67.4806 39.9417 67.4803 39.9409C67.4801 39.9405 67.48 39.9402 67.48 39.9401C67.4799 39.94 67.4799 39.94 67.4799 39.94C67.4799 39.94 67.4799 39.94 67.48 39.9401C67.48 39.9401 67.48 39.9401 67.48 39.9401C67.48 39.9401 67.48 39.9402 67.1582 40.0625ZM67.3908 41.2922C67.56 41.5518 67.8322 41.891 68.0534 42.1563C68.1656 42.291 68.2678 42.4103 68.342 42.4959C68.3791 42.5387 68.4092 42.5732 68.4301 42.5971C68.4406 42.609 68.4488 42.6183 68.4544 42.6247C68.4572 42.6278 68.4594 42.6303 68.4608 42.632C68.4616 42.6328 68.4621 42.6334 68.4625 42.6339C68.4627 42.6341 68.4629 42.6343 68.463 42.6344C68.4631 42.6345 68.4631 42.6345 68.4631 42.6346C68.4632 42.6346 68.4632 42.6346 68.4632 42.6346C68.4632 42.6346 68.4632 42.6346 68.7207 42.4062C68.9783 42.1779 68.9783 42.1779 68.9783 42.1779C68.9783 42.1779 68.9783 42.1779 68.9783 42.1779C68.9783 42.1778 68.9782 42.1778 68.9782 42.1778C68.9781 42.1777 68.978 42.1776 68.9779 42.1774C68.9776 42.1771 68.9771 42.1765 68.9765 42.1758C68.9752 42.1743 68.9732 42.1721 68.9706 42.1692C68.9654 42.1633 68.9576 42.1545 68.9476 42.143C68.9276 42.1202 68.8984 42.0868 68.8624 42.0452C68.7903 41.962 68.691 41.8461 68.5822 41.7155C68.3611 41.4503 68.1124 41.1384 67.9674 40.9161L67.3908 41.2922ZM16.1192 31.7615C12.971 35.3207 10.8648 39.2719 10.3398 42.9946C9.81238 46.7344 10.8848 50.2399 14.0768 52.8298L14.5105 52.2952C11.5288 49.8759 10.5235 46.6218 11.0215 43.0908C11.5218 39.5427 13.5441 35.7119 16.6348 32.2176L16.1192 31.7615ZM14.0768 52.8298C16.8742 55.0995 20.2794 55.8328 23.6328 56.7678C27.0067 57.7085 30.3835 58.8605 33.3162 61.9155L33.8128 61.4387C30.7455 58.2436 27.2151 57.0519 23.8177 56.1046C20.3997 55.1516 17.1695 54.4526 14.5105 52.2952L14.0768 52.8298ZM33.3162 61.9155C34.8216 63.4836 35.3685 65.0798 35.2729 66.6201C35.1764 68.1731 34.4235 69.7175 33.2367 71.1593C30.8593 74.0476 26.8213 76.4243 23.308 77.4936L23.5085 78.1522C27.1215 77.0526 31.2867 74.6117 33.7683 71.5968C35.011 70.0871 35.8516 68.4086 35.96 66.6628C36.0692 64.9043 35.4324 63.1258 33.8128 61.4387L33.3162 61.9155ZM23.308 77.4936C17.3003 79.3221 8.77711 83.104 4.0976 87.4804C1.76623 89.6607 0.299836 92.0736 0.730352 94.5231C1.16082 96.9724 3.45564 99.2742 8.16721 101.316L8.44094 100.684C3.77752 98.6633 1.77546 96.4925 1.4084 94.404C1.04139 92.3157 2.27681 90.1258 4.56784 87.9832C9.13312 83.7137 17.537 79.9696 23.5085 78.1522L23.308 77.4936ZM38.5819 68.9947C38.6123 69.015 38.6436 69.0371 38.6757 69.061L39.0861 68.5082C39.0455 68.478 39.0047 68.4492 38.9638 68.4219L38.5819 68.9947ZM38.6757 69.061C39.0297 69.3238 39.436 69.7639 39.9047 70.3103C40.363 70.8447 40.8772 71.4761 41.4193 72.07C41.9635 72.6665 42.5546 73.2468 43.187 73.6925C43.8192 74.1381 44.5119 74.463 45.2568 74.5203L45.3097 73.8339C44.7314 73.7894 44.1568 73.5338 43.5837 73.1298C43.0108 72.7261 42.4587 72.1877 41.9278 71.606C41.3947 71.0218 40.9018 70.4154 40.4273 69.8621C39.963 69.3209 39.5106 68.8234 39.0861 68.5082L38.6757 69.061ZM45.2568 74.5203C46.0896 74.5843 46.9287 74.3488 47.728 73.9699C48.5284 73.5905 49.3107 73.0569 50.0369 72.4972C50.7627 71.9377 51.4464 71.3411 52.0396 70.8371C52.6442 70.3235 53.1386 69.9206 53.5136 69.7108L53.1774 69.11C52.7325 69.359 52.185 69.8102 51.5939 70.3125C50.9914 70.8244 50.3256 71.4054 49.6166 71.9519C48.908 72.4981 48.17 72.9985 47.4331 73.3478C46.6951 73.6977 45.9799 73.8854 45.3097 73.8339L45.2568 74.5203ZM53.5136 69.7108C53.5623 69.6835 53.6074 69.6605 53.6489 69.6414L53.362 69.0156C53.3011 69.0435 53.2394 69.0753 53.1774 69.11L53.5136 69.7108ZM53.6489 69.6414C53.7678 69.5869 53.8404 69.5734 53.877 69.5734V68.8849C53.6999 68.8849 53.5236 68.9416 53.362 69.0156L53.6489 69.6414ZM53.877 69.2292C53.7824 68.8982 53.7824 68.8982 53.7825 68.8982C53.7825 68.8982 53.7825 68.8982 53.7825 68.8982C53.7825 68.8982 53.7825 68.8982 53.7825 68.8982C53.7825 68.8982 53.7825 68.8982 53.7825 68.8982C53.7824 68.8982 53.7824 68.8982 53.7823 68.8982C53.7821 68.8983 53.7818 68.8984 53.7814 68.8985C53.7806 68.8987 53.7792 68.8991 53.7774 68.8996C53.7737 68.9007 53.768 68.9023 53.7603 68.9044C53.7451 68.9087 53.7219 68.9151 53.6913 68.9234C53.63 68.9401 53.5386 68.9645 53.4196 68.9952L53.5913 69.6619C53.7135 69.6304 53.8079 69.6051 53.8721 69.5877C53.9042 69.5789 53.9287 69.5722 53.9454 69.5675C53.9537 69.5652 53.9601 69.5634 53.9645 69.5621C53.9667 69.5615 53.9684 69.5611 53.9695 69.5607C53.9701 69.5606 53.9706 69.5604 53.9709 69.5603C53.9711 69.5603 53.9712 69.5602 53.9713 69.5602C53.9714 69.5602 53.9714 69.5602 53.9715 69.5602C53.9715 69.5602 53.9715 69.5602 53.9715 69.5602C53.9715 69.5602 53.9715 69.5602 53.9715 69.5602C53.9715 69.5601 53.9716 69.5601 53.877 69.2292ZM53.4196 68.9952C53.2788 69.0315 53.0992 69.0764 52.8849 69.1276L53.0448 69.7972C53.2632 69.7451 53.4467 69.6991 53.5913 69.6619L53.4196 68.9952ZM52.8849 69.1276C51.5435 69.4478 48.8516 70.0072 45.7839 70.1876L45.8243 70.8749C48.9467 70.6912 51.6812 70.1227 53.0448 69.7972L52.8849 69.1276ZM45.7839 70.1876C42.8174 70.3621 40.2975 69.171 39.3491 68.648L39.0167 69.2509C40.0098 69.7985 42.667 71.0606 45.8243 70.8749L45.7839 70.1876ZM39.3491 68.648C39.2207 68.5772 39.1222 68.5193 39.0566 68.4795C39.0238 68.4597 38.9992 68.4444 38.9832 68.4343C38.9753 68.4293 38.9694 68.4255 38.9658 68.4232C38.964 68.422 38.9627 68.4212 38.962 68.4207C38.9616 68.4205 38.9614 68.4204 38.9613 68.4203C38.9613 68.4203 38.9613 68.4203 38.9613 68.4203C38.9613 68.4203 38.9613 68.4203 38.9614 68.4203C38.9614 68.4204 38.9614 68.4204 38.9614 68.4204C38.9614 68.4204 38.9615 68.4204 38.9615 68.4204C38.9615 68.4204 38.9615 68.4204 38.7728 68.7083C38.5842 68.9962 38.5842 68.9963 38.5842 68.9963C38.5842 68.9963 38.5842 68.9963 38.5842 68.9963C38.5843 68.9963 38.5843 68.9963 38.5843 68.9964C38.5844 68.9964 38.5845 68.9964 38.5846 68.9965C38.5847 68.9966 38.5849 68.9967 38.5852 68.9969C38.5857 68.9972 38.5863 68.9976 38.5871 68.9981C38.5886 68.9991 38.5907 69.0005 38.5933 69.0022C38.5986 69.0056 38.6062 69.0104 38.6159 69.0165C38.6353 69.0288 38.6635 69.0463 38.7 69.0684C38.773 69.1126 38.8796 69.1753 39.0167 69.2509L39.3491 68.648ZM38.5663 68.9837C38.6076 69.0147 38.6492 69.044 38.691 69.0717L39.0708 68.4975C39.0405 68.4774 39.01 68.4559 38.9794 68.433L38.5663 68.9837ZM38.691 69.0717C38.8071 69.1485 38.9254 69.2127 39.0454 69.265L39.3203 68.6339C39.2381 68.598 39.1548 68.553 39.0708 68.4975L38.691 69.0717ZM39.0454 69.265C39.6424 69.5251 40.2431 69.4726 40.7886 69.2736C41.3281 69.0769 41.8304 68.7318 42.2617 68.3764C42.6942 68.0201 43.0751 67.6363 43.361 67.3547C43.5075 67.2104 43.623 67.0989 43.7125 67.0235C43.7574 66.9857 43.7863 66.9651 43.8021 66.9556C43.8288 66.9396 43.7932 66.9692 43.7207 66.9692V66.2808C43.5977 66.2808 43.4978 66.3353 43.4475 66.3655C43.3863 66.4023 43.3255 66.4494 43.269 66.497C43.1555 66.5926 43.021 66.7233 42.8779 66.8643C42.5845 67.1533 42.2277 67.5125 41.8239 67.8451C41.419 68.1787 40.9866 68.4686 40.5528 68.6269C40.125 68.7829 39.7138 68.8052 39.3203 68.6339L39.0454 69.265ZM43.7207 66.9692C43.6769 66.9692 43.6807 66.9548 43.7615 67.0014C43.8279 67.0397 43.9139 67.0999 44.019 67.1816C44.2296 67.3452 44.4786 67.5646 44.7461 67.7965C45.0076 68.0233 45.2859 68.261 45.5372 68.4423C45.663 68.533 45.7905 68.6158 45.9126 68.6771C46.0274 68.7348 46.1728 68.7921 46.3249 68.7921V68.1037C46.3346 68.1037 46.3054 68.104 46.2218 68.062C46.1455 68.0237 46.0511 67.9641 45.9399 67.8839C45.7172 67.7233 45.4612 67.5053 45.1971 67.2764C44.9389 67.0526 44.6708 66.8162 44.4414 66.638C44.3267 66.5488 44.212 66.4666 44.1057 66.4052C44.0138 66.3522 43.8728 66.2808 43.7207 66.2808V66.9692ZM46.3249 68.7921C46.4382 68.7921 46.527 68.7424 46.5633 68.721C46.6115 68.6926 46.6578 68.6573 46.6988 68.6233C46.7816 68.5546 46.8761 68.4629 46.9737 68.3632C47.1681 68.1646 47.4126 67.8952 47.6503 67.6417C47.894 67.3816 48.1361 67.1324 48.3457 66.9494C48.4508 66.8577 48.5391 66.7903 48.6088 66.7477C48.6896 66.6983 48.7026 66.7088 48.6687 66.7088V66.0204C48.5045 66.0204 48.3548 66.096 48.2494 66.1605C48.1329 66.2318 48.0117 66.3272 47.893 66.4308C47.655 66.6384 47.3925 66.91 47.148 67.1708C46.8974 67.4382 46.6698 67.6895 46.4818 67.8816C46.3881 67.9772 46.3138 68.0482 46.2592 68.0935C46.2316 68.1164 46.2171 68.126 46.2136 68.128C46.1981 68.1371 46.2442 68.1037 46.3249 68.1037V68.7921ZM48.6687 66.7088C48.603 66.7088 48.5703 66.6829 48.5855 66.6924C48.5954 66.6986 48.6184 66.7157 48.6565 66.7519C48.7327 66.8244 48.8304 66.9355 48.9553 67.0855C49.1972 67.3757 49.5221 67.7884 49.8994 68.1925C50.6413 68.9868 51.6968 69.8736 52.9829 69.8062L52.9468 69.1187C51.9971 69.1685 51.1347 68.5064 50.4025 67.7225C50.0429 67.3375 49.7417 66.9537 49.4842 66.6447C49.3595 66.4951 49.2392 66.356 49.131 66.2531C49.0769 66.2017 49.0161 66.1498 48.9509 66.1089C48.891 66.0714 48.7919 66.0204 48.6687 66.0204V66.7088ZM52.9829 69.8062C53.1268 69.7986 53.2725 69.7791 53.4198 69.7465L53.2711 69.0743C53.1609 69.0987 53.0528 69.1131 52.9468 69.1187L52.9829 69.8062ZM53.4198 69.7465C53.6187 69.7025 53.8194 69.6349 54.0212 69.5417L53.7327 68.9166C53.5737 68.9901 53.4198 69.0414 53.2711 69.0743L53.4198 69.7465ZM16.6348 32.2176C26.5554 21.0017 40.9914 19.706 51.9395 18.0068C54.6674 17.5834 57.1841 17.133 59.3463 16.4911C61.5068 15.8498 63.3427 15.0091 64.69 13.7876C66.0476 12.5565 66.8912 10.9544 67.088 8.8362C67.2836 6.73116 66.8396 4.12957 65.6588 0.882365L65.0118 1.11764C66.1748 4.31574 66.585 6.80856 66.4025 8.77252C66.2213 10.7233 65.4547 12.1648 64.2275 13.2776C62.99 14.3997 61.2665 15.203 59.1504 15.8311C57.0361 16.4588 54.5591 16.9036 51.8339 17.3265C40.9689 19.0128 26.2383 20.3212 16.1192 31.7615L16.6348 32.2176Z" fill="#302C28"/>
</svg>
