<svg width="20" height="20" viewBox="0 0 20 20" fill="none" xmlns="http://www.w3.org/2000/svg">
<path fill-rule="evenodd" clip-rule="evenodd" d="M-1.52588e-05 10C-1.52588e-05 4.48421 4.4842 0 9.99998 0C15.5158 0 20 4.48421 20 10C20 15.5158 15.5158 20 9.99998 20C4.4842 20 -1.52588e-05 15.5158 -1.52588e-05 10ZM12.7368 12.1263L15.0105 6.42105C15.3474 5.53684 14.4631 4.65263 13.5789 5.01053L7.87367 7.26316C7.59999 7.36842 7.36841 7.6 7.26314 7.87368L5.01051 13.6C4.65262 14.4842 5.53683 15.3684 6.42104 15.0105L12.1263 12.7368C12.4 12.6316 12.6316 12.4 12.7368 12.1263ZM11.0898 10.0908C11.0898 10.6431 10.6421 11.0908 10.0898 11.0908C9.53754 11.0908 9.08983 10.6431 9.08983 10.0908C9.08983 9.53854 9.53754 9.09082 10.0898 9.09082C10.6421 9.09082 11.0898 9.53854 11.0898 10.0908Z" fill="currentColor"/>
</svg>
