<svg width="21" height="12" viewBox="0 0 21 12" fill="none" xmlns="http://www.w3.org/2000/svg">
<path d="M7.00001 2.18182C7.00001 0.976835 7.97684 0 9.18183 0H18.1515C19.3565 0 20.3333 0.976835 20.3333 2.18182C20.3333 3.38681 19.3565 4.36365 18.1515 4.36365H9.18183C7.97684 4.36365 7.00001 3.38681 7.00001 2.18182Z" fill="currentColor"/>
<path d="M7.00001 9.81818C7.00001 8.61319 7.97684 7.63635 9.18183 7.63635H14.8182C16.0232 7.63635 17 8.61319 17 9.81818C17 11.0232 16.0232 12 14.8182 12H9.18183C7.97685 12 7.00001 11.0232 7.00001 9.81818Z" fill="currentColor"/>
<path d="M0.333344 2.18182C0.333344 0.976835 1.31018 0 2.51517 0H2.59596C3.80095 0 4.77779 0.976835 4.77779 2.18182C4.77779 3.38681 3.80095 4.36365 2.59596 4.36365H2.51517C1.31018 4.36365 0.333344 3.38681 0.333344 2.18182Z" fill="currentColor"/>
<path d="M0.333344 9.81818C0.333344 8.61319 1.31018 7.63635 2.51517 7.63635H2.59596C3.80095 7.63635 4.77779 8.61319 4.77779 9.81818C4.77779 11.0232 3.80095 12 2.59596 12H2.51517C1.31018 12 0.333344 11.0232 0.333344 9.81818Z" fill="currentColor"/>
</svg>
