<svg width="79.55" height="80.77" viewBox="0 0 92.55 115.77" xmlns="http://www.w3.org/2000/svg">
    <g id="SvgjsG1627" featurekey="symbolFeature-0"
       transform="matrix(1.1205020264889969,0,0,1.1205020264889969,-10.30861842997997,-0.2521129826748744)"
       fill="#aad0b2">
        <path xmlns="http://www.w3.org/2000/svg"
              d="M35.1,49.5c0,0.7,0.3,1.3,0.7,1.8l9,9c0.9,0.9,2.6,0.9,3.5,0l16.4-16.4c0.5-0.5,0.7-1.1,0.7-1.8  c0-0.7-0.3-1.3-0.7-1.8c-1-1-2.6-1-3.5,0L46.6,55l-7.2-7.2c-0.5-0.5-1.1-0.7-1.8-0.7c-0.6,0-1.3,0.2-1.8,0.7  C35.4,48.3,35.1,48.9,35.1,49.5z"></path>
        <path xmlns="http://www.w3.org/2000/svg"
              d="M89.5,17.2c-0.3,0-6.5-1.1-14.3-3.6C68.1,11.3,58.3,7.2,52,0.9c-0.9-0.9-2.4-0.9-3.3,0c-6.3,6.3-16.1,10.4-23.2,12.7  c-7.8,2.5-14,3.6-14.3,3.6c-1.1,0.2-2,1.2-2,2.3v40.4c0,0.1,0,0.3,0,0.4c0.2,0.8,4.3,20.8,40,38.6c0.1,0,0.4,0.1,0.5,0.2  c0.2,0.1,0.4,0.1,0.6,0.1c0.2,0,0.4,0,0.6-0.1c0,0,0.4-0.1,0.5-0.2c35.7-17.7,39.9-37.7,40-38.6c0-0.1,0-0.3,0-0.4V19.5  C91.4,18.4,90.6,17.4,89.5,17.2z M86.7,21.5v38.2c-0.5,2-5.6,18.9-36.4,34.5C19.5,78.5,14.4,61.5,13.9,59.7V21.5  c5.9-1.1,24.8-5.5,36.4-15.7C61.9,16,80.8,20.3,86.7,21.5z"></path>
    </g>
</svg>
